<svg xmlns="http://www.w3.org/2000/svg" viewBox="0 0 400 120" fill="none">
  <!-- White version on dark background -->
  <rect width="400" height="120" fill="#0a0a14"/>
  
  <g transform="translate(16, 10)">
    <rect x="0" y="0" width="100" height="100" rx="22" fill="url(#grad2)"/>
    <path d="M32 24 L32 76" stroke="#fff" stroke-width="7" stroke-linecap="round"/>
    <path d="M32 24 C58 24, 72 32, 72 50 C72 68, 58 76, 32 76" stroke="#fff" stroke-width="7" stroke-linecap="round" fill="none"/>
    <path d="M42 32 C52 38, 56 44, 54 50 C52 56, 48 62, 42 68" stroke="rgba(255,255,255,0.3)" stroke-width="2.5" stroke-linecap="round" fill="none"/>
    <path d="M50 36 C58 42, 60 48, 58 52 C56 58, 52 62, 48 66" stroke="rgba(255,255,255,0.2)" stroke-width="2" stroke-linecap="round" fill="none"/>
  </g>
  
  <text x="132" y="58" font-family="'Space Grotesk', 'SF Pro Display', system-ui, sans-serif" font-size="42" font-weight="700" letter-spacing="-0.5" fill="#ffffff">drape</text>
  <text x="132" y="92" font-family="'Space Grotesk', 'SF Pro Display', system-ui, sans-serif" font-size="22" font-weight="500" letter-spacing="8" fill="rgba(255,255,255,0.5)">STUDIO</text>
  
  <defs>
    <linearGradient id="grad2" x1="0" y1="0" x2="100" y2="100" gradientUnits="userSpaceOnUse">
      <stop offset="0%" stop-color="#6c5ce7"/>
      <stop offset="100%" stop-color="#00cec9"/>
    </linearGradient>
  </defs>
</svg>
